HIERARCHY
ROOT Hips
{
    OFFSET 0.000000 0.000000 0.000000
    CHANNELS 6 Xposition Yposition Zposition Zrotation Xrotation Yrotation
    JOINT Spine
    {
        OFFSET -0.000000 7.236184 0.000000
        CHANNELS 3 Zrotation Xrotation Yrotation
        JOINT Spine1
        {
            OFFSET -0.000000 20.420147 0.000000
            CHANNELS 3 Zrotation Xrotation Yrotation
            JOINT Neck
            {
                OFFSET -0.000000 20.336288 1.848754
                CHANNELS 3 Zrotation Xrotation Yrotation
                JOINT Head
                {
                    OFFSET -0.000000 12.354461 -1.764923
                    CHANNELS 3 Zrotation Xrotation Yrotation
                    End Site
                    {
                        OFFSET -0.000000 22.061537 0.000000
                    }
                }
            }
            JOINT LeftShoulder
            {
                OFFSET 3.573296 18.396038 -0.314103
                CHANNELS 3 Zrotation Xrotation Yrotation
                JOINT LeftArm
                {
                    OFFSET 10.880760 0.000000 0.000000
                    CHANNELS 3 Zrotation Xrotation Yrotation
                    JOINT LeftForeArm
                    {
                        OFFSET 27.185530 0.000000 0.000000
                        CHANNELS 3 Zrotation Xrotation Yrotation
                        JOINT LeftHand
                        {
                            OFFSET 27.825975 0.000000 0.000000
                            CHANNELS 3 Zrotation Xrotation Yrotation
                            End Site
                            {
                                OFFSET 13.236923 0.000000 0.000000
                            }
                        }
                    }
                }
            }
            JOINT RightShoulder
            {
                OFFSET -3.474926 18.396038 -0.314103
                CHANNELS 3 Zrotation Xrotation Yrotation
                JOINT RightArm
                {
                    OFFSET -10.880760 0.000000 0.000000
                    CHANNELS 3 Zrotation Xrotation Yrotation
                    JOINT RightForeArm
                    {
                        OFFSET -27.185530 0.000000 0.000000
                        CHANNELS 3 Zrotation Xrotation Yrotation
                        JOINT RightHand
                        {
                            OFFSET -27.825975 0.000000 0.000000
                            CHANNELS 3 Zrotation Xrotation Yrotation
                            End Site
                            {
                                OFFSET -13.236923 0.000000 0.000000
                            }
                        }
                    }
                }
            }
        }
    }
    JOINT LeftUpLeg
    {
        OFFSET 8.824615 0.000000 0.000000
        CHANNELS 3 Zrotation Xrotation Yrotation
        JOINT LeftLeg
        {
            OFFSET -0.000000 -35.111282 0.000000
            CHANNELS 3 Zrotation Xrotation Yrotation
            JOINT LeftFoot
            {
                OFFSET -0.000000 -42.324711 0.000000
                CHANNELS 3 Zrotation Xrotation Yrotation
                JOINT LeftToeBase
                {
                    OFFSET -0.000000 -5.735999 13.236923
                    CHANNELS 3 Zrotation Xrotation Yrotation
                    End Site
                    {
                        OFFSET -0.000000 0.000000 3.529846
                    }
                }
            }
        }
    }
    JOINT RightUpLeg
    {
        OFFSET -8.824615 0.000000 0.000000
        CHANNELS 3 Zrotation Xrotation Yrotation
        JOINT RightLeg
        {
            OFFSET -0.000000 -35.111282 0.000000
            CHANNELS 3 Zrotation Xrotation Yrotation
            JOINT RightFoot
            {
                OFFSET -0.000000 -42.324711 0.000000
                CHANNELS 3 Zrotation Xrotation Yrotation
                JOINT RightToeBase
                {
                    OFFSET -0.000000 -5.735999 13.236923
                    CHANNELS 3 Zrotation Xrotation Yrotation
                    End Site
                    {
                        OFFSET -0.000000 0.000000 3.529846
                    }
                }
            }
        }
    }
}
MOTION
Frames:    4
Frame Time:    0.008333
-6.264143    81.855698    98.792000    -0.351104    -9.169402    -178.403641    -1.503316    -15.704133    0.169575    0.211674    5.425029    0.366921    3.940105    3.385666    -1.429216    2.534858    -3.005062    -1.527168    0.716424    18.154352    -1.047301    -51.764690    45.771973    -34.104424    -1.387082    -7.842637    -17.185007    18.356073    -7.255807    4.957903    5.769114    18.305918    -5.847765    48.728802    42.406887    31.665449    -1.955931    -8.232011    17.896908    -15.320944    -7.347610    -4.344478    1.993292    -6.349573    -0.799606    -1.664756    9.436678    -4.545961    0.106268    -9.932188    -4.754042    -0.389901    -1.153347    0.433099    -3.345272    -3.111745    2.628429    3.339899    3.856482    5.976044    -1.427287    -6.610774    -12.788905    -0.180082    0.032697    0.194764    
-6.275365    81.850899    98.768387    -0.350832    -9.188932    -178.420624    -1.500497    -15.679292    0.162293    0.234329    5.427293    0.357877    3.945497    3.338582    -1.418170    2.492265    -3.049299    -1.524225    0.706122    18.160513    -1.055092    -51.781914    45.745800    -34.096951    -1.374152    -7.838034    -17.177172    18.322712    -7.257328    4.916212    5.766059    18.299458    -5.851768    48.734020    42.372021    31.631863    -1.956885    -8.219205    17.926176    -15.325306    -7.333836    -4.345292    1.987900    -6.347523    -0.825681    -1.671594    9.430800    -4.505344    0.113125    -9.946603    -4.757576    -0.406602    -1.174745    0.451667    -3.353594    -3.117343    2.658236    3.344608    3.850456    5.878242    -1.392983    -6.628412    -12.695144    -0.171860    0.019846    0.185874    
-6.286449    81.846161    98.745171    -0.350602    -9.208516    -178.437073    -1.497651    -15.654408    0.154973    0.256456    5.429243    0.348742    3.950816    3.292268    -1.407186    2.450303    -3.092699    -1.521275    0.696218    18.166325    -1.062623    -51.799492    45.720806    -34.089043    -1.360394    -7.833668    -17.169893    18.290232    -7.258791    4.875123    5.762998    18.293608    -5.855315    48.739445    42.336864    31.598503    -1.957977    -8.206687    17.955946    -15.329397    -7.320336    -4.346051    1.982366    -6.346156    -0.851675    -1.678282    9.425426    -4.464763    0.119884    -9.961127    -4.761501    -0.422815    -1.195819    0.469696    -3.361787    -3.123339    2.687945    3.349056    3.845007    5.783776    -1.359494    -6.646273    -12.605508    -0.163885    0.006877    0.177253    
-6.297489    81.841431    98.722198    -0.350410    -9.228510    -178.452728    -1.494717    -15.628817    0.147211    0.278131    5.430643    0.339350    3.956159    3.246660    -1.396102    2.408337    -3.136287    -1.518147    0.686192    18.171963    -1.069407    -51.816849    45.697392    -34.080612    -1.345010    -7.829566    -17.164055    18.258551    -7.260169    4.834629    5.760048    18.288906    -5.858515    48.744804    42.300644    31.565241    -1.959251    -8.194370    17.987555    -15.333213    -7.307027    -4.346720    1.976674    -6.345953    -0.878291    -1.685165    9.420785    -4.423488    0.126812    -9.976033    -4.765937    -0.438427    -1.216075    0.487057    -3.370189    -3.130006    2.718830    3.353720    3.840440    5.695368    -1.327654    -6.664931    -12.524357    -0.156159    -0.005291    0.168900    
